<?xml version="1.0" encoding="utf-8"?>
<!-- Generator: Adobe Illustrator 22.1.0, SVG Export Plug-In . SVG Version: 6.00 Build 0)  -->
<svg version="1.1" id="BACKGROUND_2" opacity="0.8" xmlns="http://www.w3.org/2000/svg" xmlns:xlink="http://www.w3.org/1999/xlink"
	 x="0px" y="0px" viewBox="0 0 750 500" style="enable-background:new 0 0 750 500;" xml:space="preserve">
<style type="text/css">
	.st0{opacity:0.55;clip-path:url(#SVGID_2_);}
	.st1{fill:#FFEEFF;}
	.st2{opacity:0.59;clip-path:url(#SVGID_2_);}
	.st3{fill:none;stroke:url(#SVGID_3_);stroke-width:0.5;stroke-miterlimit:10;}
	.st4{fill:none;stroke:url(#SVGID_4_);stroke-miterlimit:10;}
	.st5{fill:none;stroke:url(#SVGID_5_);stroke-miterlimit:10;}
	.st6{fill:none;stroke:url(#SVGID_6_);stroke-miterlimit:10;}
	.st7{fill:none;stroke:url(#SVGID_7_);stroke-linecap:round;stroke-linejoin:round;stroke-miterlimit:10;}
	.st8{fill:none;stroke:url(#SVGID_8_);stroke-width:0.5;stroke-miterlimit:10;}
	.st9{fill:none;stroke:url(#SVGID_9_);stroke-miterlimit:10;}
	.st10{fill:none;stroke:url(#SVGID_10_);stroke-miterlimit:10;}
	.st11{fill:none;stroke:url(#SVGID_11_);stroke-width:0.5;stroke-miterlimit:10;}
	.st12{fill:none;stroke:url(#SVGID_12_);stroke-linecap:round;stroke-linejoin:round;stroke-miterlimit:10;}
	.st13{fill:none;stroke:url(#SVGID_13_);stroke-miterlimit:10;}
	.st14{fill:none;stroke:url(#SVGID_14_);stroke-linecap:round;stroke-linejoin:round;stroke-miterlimit:10;}
	.st15{fill:none;stroke:url(#SVGID_15_);stroke-miterlimit:10;}
	.st16{fill:none;stroke:url(#SVGID_16_);stroke-width:0.5;stroke-miterlimit:10;}
	.st17{fill:none;stroke:url(#SVGID_17_);stroke-linecap:round;stroke-linejoin:round;stroke-miterlimit:10;}
	.st18{fill:none;stroke:url(#SVGID_18_);stroke-miterlimit:10;}
	.st19{fill:none;stroke:url(#SVGID_19_);stroke-linecap:round;stroke-linejoin:round;stroke-miterlimit:10;}
	.st20{fill:none;stroke:url(#SVGID_20_);stroke-miterlimit:10;}
	.st21{fill:none;stroke:url(#SVGID_21_);stroke-width:0.5;stroke-miterlimit:10;}
	.st22{fill:none;stroke:url(#SVGID_22_);stroke-miterlimit:10;}
	.st23{fill:none;stroke:url(#SVGID_23_);stroke-miterlimit:10;}
	.st24{fill:none;stroke:url(#SVGID_24_);stroke-miterlimit:10;}
	.st25{fill:none;stroke:url(#SVGID_25_);stroke-width:0.5;stroke-miterlimit:10;}
	.st26{fill:none;stroke:url(#SVGID_26_);stroke-width:0.5;stroke-miterlimit:10;}
	.st27{fill:none;stroke:url(#SVGID_27_);stroke-linecap:round;stroke-linejoin:round;stroke-miterlimit:10;}
	.st28{opacity:0.6;fill:none;stroke:url(#SVGID_28_);stroke-miterlimit:10;}
	.st29{opacity:0.4;fill:none;stroke:url(#SVGID_29_);stroke-miterlimit:10;}
	.st30{opacity:0.41;fill:none;stroke:url(#SVGID_30_);stroke-miterlimit:10;}
	.st31{opacity:0.41;fill:none;stroke:url(#SVGID_31_);stroke-miterlimit:10;}
	.st32{opacity:0.41;fill:none;stroke:url(#SVGID_32_);stroke-miterlimit:10;}
	.st33{opacity:0.41;fill:none;stroke:url(#SVGID_33_);stroke-miterlimit:10;}
	.st34{opacity:0.41;fill:none;stroke:url(#SVGID_34_);stroke-miterlimit:10;}
	.st35{fill:none;stroke:url(#SVGID_35_);stroke-miterlimit:10;}
	.st36{fill:none;stroke:url(#SVGID_36_);stroke-miterlimit:10;}
	.st37{opacity:0.41;fill:none;stroke:url(#SVGID_37_);stroke-miterlimit:10;}
	.st38{opacity:0.41;fill:none;stroke:url(#SVGID_38_);stroke-miterlimit:10;}
	.st39{opacity:0.41;fill:none;stroke:url(#SVGID_39_);stroke-miterlimit:10;}
	.st40{opacity:0.41;fill:none;stroke:url(#SVGID_40_);stroke-miterlimit:10;}
	.st41{opacity:0.41;fill:none;stroke:url(#SVGID_41_);stroke-miterlimit:10;}
	.st42{opacity:0.39;fill:none;stroke:url(#SVGID_42_);stroke-miterlimit:10;}
	.st43{fill:none;stroke:url(#SVGID_43_);stroke-linecap:round;stroke-linejoin:round;stroke-miterlimit:10;}
	.st44{fill:none;stroke:url(#SVGID_44_);stroke-miterlimit:10;}
	.st45{fill:none;stroke:url(#SVGID_45_);stroke-miterlimit:10;}
	.st46{fill:none;stroke:url(#SVGID_46_);stroke-width:0.5;stroke-miterlimit:10;}
	.st47{fill:none;stroke:url(#SVGID_47_);stroke-miterlimit:10;}
	.st48{fill:none;stroke:url(#SVGID_48_);stroke-linecap:round;stroke-linejoin:round;stroke-miterlimit:10;}
	.st49{fill:none;stroke:url(#SVGID_49_);stroke-linecap:round;stroke-linejoin:round;stroke-miterlimit:10;}
	.st50{fill:none;stroke:url(#SVGID_50_);stroke-width:0.5;stroke-miterlimit:10;}
	.st51{fill:none;stroke:url(#SVGID_51_);stroke-linecap:round;stroke-linejoin:round;stroke-miterlimit:10;}
	.st52{fill:none;stroke:url(#SVGID_52_);stroke-width:0.5;stroke-miterlimit:10;}
	.st53{fill:none;stroke:url(#SVGID_53_);stroke-width:0.5;stroke-miterlimit:10;}
	.st54{fill:none;stroke:url(#SVGID_54_);stroke-width:0.5;stroke-miterlimit:10;}
	.st55{fill:none;stroke:url(#SVGID_55_);stroke-width:0.5;stroke-miterlimit:10;}
	.st56{fill:none;stroke:url(#SVGID_56_);stroke-width:0.5;stroke-miterlimit:10;}
	.st57{fill:none;stroke:url(#SVGID_57_);stroke-width:0.5;stroke-miterlimit:10;}
	.st58{fill:none;stroke:url(#SVGID_58_);stroke-width:0.5;stroke-miterlimit:10;}
	.st59{fill:none;stroke:url(#SVGID_59_);stroke-width:0.5;stroke-miterlimit:10;}
	.st60{fill:none;stroke:url(#SVGID_60_);stroke-width:0.5;stroke-miterlimit:10;}
	.st61{fill:none;stroke:url(#SVGID_61_);stroke-width:0.5;stroke-miterlimit:10;}
	.st62{clip-path:url(#SVGID_2_);}
	.st63{fill:#E7C4E8;}
</style>
<g>
	<defs>
		<rect id="SVGID_1_" width="750" height="500"/>
	</defs>
	<clipPath id="SVGID_2_">
		<use xlink:href="#SVGID_1_"  style="overflow:visible;"/>
	</clipPath>
	<g class="st0">
		<g>
			<g>
				<circle class="st1" cx="407.6" cy="292.6" r="0.9"/>
			</g>
		</g>
		<g>
			<g>
				<circle class="st1" cx="371.3" cy="294.1" r="0.9"/>
			</g>
		</g>
		<g>
			<g>
				<circle class="st1" cx="324" cy="310.6" r="1.3"/>
			</g>
		</g>
		<g>
			<g>
				<circle class="st1" cx="324" cy="322.5" r="1.5"/>
			</g>
		</g>
		<g>
			<g>
				<circle class="st1" cx="353.8" cy="333.1" r="0.9"/>
			</g>
		</g>
		<g>
			<g>
				<circle class="st1" cx="420.5" cy="354.3" r="0.9"/>
			</g>
		</g>
		<g>
			<g>
				<circle class="st1" cx="463.4" cy="383.5" r="0.9"/>
			</g>
		</g>
		<g>
			<g>
				<circle class="st1" cx="480.4" cy="425.9" r="0.9"/>
			</g>
		</g>
		<g>
			<g>
				<circle class="st1" cx="414.1" cy="444.4" r="0.9"/>
			</g>
		</g>
		<g>
			<g>
				<circle class="st1" cx="324.9" cy="445.6" r="0.9"/>
			</g>
		</g>
		<g>
			<g>
				<circle class="st1" cx="317.4" cy="448.7" r="0.9"/>
			</g>
		</g>
		<g>
			<g>
				<circle class="st1" cx="330" cy="436.8" r="0.9"/>
			</g>
		</g>
		<g>
			<g>
				<circle class="st1" cx="393.6" cy="378.7" r="1.4"/>
			</g>
		</g>
		<g>
			<g>
				<circle class="st1" cx="439.7" cy="394.9" r="0.9"/>
			</g>
		</g>
		<g>
			<g>
				<circle class="st1" cx="527.4" cy="394.5" r="2.1"/>
			</g>
		</g>
		<g>
			<g>
				<circle class="st1" cx="613" cy="384.8" r="0.9"/>
			</g>
		</g>
		<g>
			<g>
				<circle class="st1" cx="679.1" cy="312.9" r="0.9"/>
			</g>
		</g>
		<g>
			<g>
				<circle class="st1" cx="649.6" cy="295.4" r="0.9"/>
			</g>
		</g>
		<g>
			<g>
				<circle class="st1" cx="649.9" cy="263.2" r="0.9"/>
			</g>
		</g>
		<g>
			<g>
				<circle class="st1" cx="604.9" cy="270.9" r="1.9"/>
			</g>
		</g>
		<g>
			<g>
				<path class="st1" d="M607.7,279.6c0,1.5-1.2,2.7-2.7,2.7s-2.7-1.2-2.7-2.7s1.2-2.7,2.7-2.7S607.7,278.1,607.7,279.6z"/>
			</g>
		</g>
		<g>
			<g>
				<circle class="st1" cx="572.4" cy="277.4" r="0.9"/>
			</g>
		</g>
		<g>
			<g>
				<circle class="st1" cx="548.2" cy="235.2" r="0.9"/>
			</g>
		</g>
		<g>
			<g>
				<circle class="st1" cx="509.5" cy="198.1" r="0.9"/>
			</g>
		</g>
		<g>
			<g>
				<circle class="st1" cx="467.1" cy="183.5" r="0.9"/>
			</g>
		</g>
		<g>
			<g>
				<circle class="st1" cx="447.4" cy="171" r="0.9"/>
			</g>
		</g>
		<g>
			<g>
				<circle class="st1" cx="320" cy="211.3" r="0.9"/>
			</g>
		</g>
		<g>
			<g>
				<circle class="st1" cx="270.4" cy="196.5" r="0.9"/>
			</g>
		</g>
		<g>
			<g>
				<circle class="st1" cx="341.7" cy="128" r="0.9"/>
			</g>
		</g>
		<g>
			<g>
				<circle class="st1" cx="447.6" cy="113" r="0.9"/>
			</g>
		</g>
		<g>
			<g>
				<circle class="st1" cx="499.2" cy="107.2" r="0.9"/>
			</g>
		</g>
		<g>
			<g>
				<circle class="st1" cx="523" cy="102.9" r="0.9"/>
			</g>
		</g>
		<g>
			<g>
				<circle class="st1" cx="620.7" cy="63.1" r="0.9"/>
			</g>
		</g>
		<g>
			<g>
				<circle class="st1" cx="607.8" cy="98.8" r="0.9"/>
			</g>
		</g>
		<g>
			<g>
				<circle class="st1" cx="513" cy="144" r="0.9"/>
			</g>
		</g>
		<g>
			<g>
				<circle class="st1" cx="359.3" cy="181.4" r="0.9"/>
			</g>
		</g>
		<g>
			<g>
				<circle class="st1" cx="371.6" cy="216.8" r="0.9"/>
			</g>
		</g>
		<g>
			<g>
				<path class="st1" d="M347.5,238.9c0,1.3-1,2.3-2.3,2.3s-2.3-1-2.3-2.3s1-2.3,2.3-2.3S347.5,237.7,347.5,238.9z"/>
			</g>
		</g>
		<g>
			<g>
				<circle class="st1" cx="271" cy="263.7" r="0.9"/>
			</g>
		</g>
		<g>
			<g>
				<circle class="st1" cx="188.9" cy="271.4" r="0.9"/>
			</g>
		</g>
		<g>
			<g>
				<circle class="st1" cx="152.9" cy="312.6" r="1.6"/>
			</g>
		</g>
		<g>
			<g>
				<circle class="st1" cx="151.3" cy="328.8" r="1.8"/>
			</g>
		</g>
		<g>
			<g>
				<circle class="st1" cx="126" cy="354.5" r="0.9"/>
			</g>
		</g>
		<g>
			<g>
				<path class="st1" d="M109.5,398.9c0,0.5-0.4,0.9-0.9,0.9c-0.5,0-0.9-0.4-0.9-0.9c0-0.5,0.4-0.9,0.9-0.9
					C109.1,398,109.5,398.4,109.5,398.9z"/>
			</g>
		</g>
		<g>
			<g>
				<path class="st1" d="M119.5,383.4c0,0.5-0.4,0.9-0.9,0.9s-0.9-0.4-0.9-0.9c0-0.5,0.4-0.9,0.9-0.9S119.5,382.9,119.5,383.4z"/>
			</g>
		</g>
		<g>
			<g>
				<circle class="st1" cx="113.2" cy="391.3" r="0.9"/>
			</g>
		</g>
		<g>
			<g>
				<path class="st1" d="M137.1,394.8c0,0.5-0.4,0.9-0.9,0.9s-0.9-0.4-0.9-0.9c0-0.5,0.4-0.9,0.9-0.9S137.1,394.3,137.1,394.8z"/>
			</g>
		</g>
		<g>
			<g>
				<circle class="st1" cx="126.9" cy="372.8" r="0.9"/>
			</g>
		</g>
		<g>
			<g>
				<circle class="st1" cx="120.7" cy="369.1" r="0.9"/>
			</g>
		</g>
		<g>
			<g>
				<circle class="st1" cx="217.8" cy="448.4" r="0.9"/>
			</g>
		</g>
		<g>
			<g>
				<circle class="st1" cx="253.1" cy="464" r="1.4"/>
			</g>
		</g>
		<g>
			<g>
				<path class="st1" d="M271.8,471.4c0,0.7-0.5,1.2-1.2,1.2s-1.2-0.5-1.2-1.2s0.5-1.2,1.2-1.2S271.8,470.8,271.8,471.4z"/>
			</g>
		</g>
		<g>
			<g>
				<path class="st1" d="M270.2,432.4c0,1.4-1.1,2.6-2.6,2.6c-1.4,0-2.6-1.1-2.6-2.6s1.1-2.6,2.6-2.6
					C269,429.9,270.2,431,270.2,432.4z"/>
			</g>
		</g>
		<g>
			<g>
				<circle class="st1" cx="261.8" cy="409.6" r="0.9"/>
			</g>
		</g>
		<g>
			<g>
				<circle class="st1" cx="285.4" cy="422.5" r="1.7"/>
			</g>
		</g>
		<g>
			<g>
				<circle class="st1" cx="344.2" cy="460.2" r="0.9"/>
			</g>
		</g>
		<g>
			<g>
				<path class="st1" d="M249.5,469.1c0,0.5-0.4,0.9-0.9,0.9c-0.5,0-0.9-0.4-0.9-0.9c0-0.5,0.4-0.9,0.9-0.9
					C249.1,468.1,249.5,468.6,249.5,469.1z"/>
			</g>
		</g>
		<g>
			<g>
				<circle class="st1" cx="194.8" cy="481" r="1.3"/>
			</g>
		</g>
		<g>
			<g>
				<path class="st1" d="M181.4,472.7c0,0.5-0.4,0.9-0.9,0.9s-0.9-0.4-0.9-0.9c0-0.5,0.4-0.9,0.9-0.9S181.4,472.1,181.4,472.7z"/>
			</g>
		</g>
		<g>
			<g>
				<circle class="st1" cx="159.1" cy="478" r="1.8"/>
			</g>
		</g>
		<g>
			<g>
				<circle class="st1" cx="304.8" cy="471.4" r="0.9"/>
			</g>
		</g>
		<g>
			<g>
				<circle class="st1" cx="339.4" cy="466.4" r="0.9"/>
			</g>
		</g>
		<g>
			<g>
				<circle class="st1" cx="388.2" cy="483.1" r="0.9"/>
			</g>
		</g>
		<g>
			<g>
				<circle class="st1" cx="434.6" cy="456" r="0.9"/>
			</g>
		</g>
		<g>
			<g>
				<circle class="st1" cx="433.3" cy="471.8" r="0.9"/>
			</g>
		</g>
		<g>
			<g>
				<circle class="st1" cx="417.7" cy="453.1" r="0.9"/>
			</g>
		</g>
		<g>
			<g>
				<circle class="st1" cx="419.9" cy="465" r="0.9"/>
			</g>
		</g>
		<g>
			<g>
				<circle class="st1" cx="458.6" cy="466.6" r="0.9"/>
			</g>
		</g>
		<g>
			<g>
				<circle class="st1" cx="592" cy="483.6" r="0.9"/>
			</g>
		</g>
		<g>
			<g>
				<circle class="st1" cx="612" cy="482.6" r="0.9"/>
			</g>
		</g>
		<g>
			<g>
				<circle class="st1" cx="648.8" cy="484.6" r="0.9"/>
			</g>
		</g>
		<g>
			<g>
				<circle class="st1" cx="593.4" cy="452.5" r="0.9"/>
			</g>
		</g>
		<g>
			<g>
				<circle class="st1" cx="514.3" cy="306.9" r="0.9"/>
			</g>
		</g>
		<g>
			<g>
				<circle class="st1" cx="492.4" cy="329.4" r="0.9"/>
			</g>
		</g>
		<g>
			<g>
				<circle class="st1" cx="484.1" cy="272" r="0.9"/>
			</g>
		</g>
		<g>
			<g>
				<circle class="st1" cx="487.8" cy="258.6" r="0.9"/>
			</g>
		</g>
		<g>
			<g>
				<circle class="st1" cx="468.9" cy="255.5" r="0.9"/>
			</g>
		</g>
		<g>
			<g>
				<circle class="st1" cx="572.7" cy="157.3" r="3.1"/>
			</g>
		</g>
		<g>
			<g>
				<circle class="st1" cx="569.6" cy="133.4" r="1.1"/>
			</g>
		</g>
		<g>
			<g>
				<circle class="st1" cx="580.6" cy="135" r="1"/>
			</g>
		</g>
		<g>
			<g>
				<circle class="st1" cx="605.5" cy="126.6" r="1.1"/>
			</g>
		</g>
		<g>
			<g>
				<circle class="st1" cx="603.8" cy="120" r="0.9"/>
			</g>
		</g>
		<g>
			<g>
				<circle class="st1" cx="596" cy="116.2" r="0.9"/>
			</g>
		</g>
		<g>
			<g>
				<circle class="st1" cx="595.1" cy="120.7" r="0.9"/>
			</g>
		</g>
		<g>
			<g>
				<circle class="st1" cx="610.3" cy="176.2" r="0.9"/>
			</g>
		</g>
		<g>
			<g>
				<circle class="st1" cx="628.7" cy="204.9" r="0.9"/>
			</g>
		</g>
		<g>
			<g>
				<circle class="st1" cx="682.3" cy="202.3" r="0.9"/>
			</g>
		</g>
		<g>
			<g>
				<circle class="st1" cx="343.3" cy="141.2" r="0.9"/>
			</g>
		</g>
		<g>
			<g>
				<circle class="st1" cx="270.1" cy="106" r="2.7"/>
			</g>
		</g>
		<g>
			<g>
				<circle class="st1" cx="248.5" cy="90" r="1.4"/>
			</g>
		</g>
		<g>
			<g>
				<circle class="st1" cx="218.5" cy="99" r="0.9"/>
			</g>
		</g>
		<g>
			<g>
				<path class="st1" d="M205.9,74.5c0,0.5-0.4,0.9-0.9,0.9s-0.9-0.4-0.9-0.9s0.4-0.9,0.9-0.9S205.9,73.9,205.9,74.5z"/>
			</g>
		</g>
		<g>
			<g>
				<circle class="st1" cx="226.5" cy="59.8" r="0.9"/>
			</g>
		</g>
		<g>
			<g>
				<path class="st1" d="M187.2,58.2c0,0.5-0.4,0.9-0.9,0.9s-0.9-0.4-0.9-0.9s0.4-0.9,0.9-0.9S187.2,57.7,187.2,58.2z"/>
			</g>
		</g>
		<g>
			<g>
				<circle class="st1" cx="182.3" cy="37.2" r="0.9"/>
			</g>
		</g>
		<g>
			<g>
				<path class="st1" d="M181.7,62.3c0,0.5-0.4,0.9-0.9,0.9s-0.9-0.4-0.9-0.9s0.4-0.9,0.9-0.9S181.7,61.8,181.7,62.3z"/>
			</g>
		</g>
		<g>
			<g>
				<circle class="st1" cx="212.4" cy="149.2" r="0.9"/>
			</g>
		</g>
		<g>
			<g>
				<circle class="st1" cx="193.4" cy="134.3" r="0.9"/>
			</g>
		</g>
		<g>
			<g>
				<circle class="st1" cx="151.9" cy="109.8" r="0.9"/>
			</g>
		</g>
		<g>
			<g>
				<circle class="st1" cx="163.4" cy="127.3" r="0.9"/>
			</g>
		</g>
		<g>
			<g>
				<circle class="st1" cx="182.8" cy="168.5" r="0.9"/>
			</g>
		</g>
		<g>
			<g>
				<circle class="st1" cx="115.6" cy="185.6" r="0.9"/>
			</g>
		</g>
		<g>
			<g>
				<circle class="st1" cx="349.1" cy="49.8" r="0.9"/>
			</g>
		</g>
		<g>
			<g>
				<circle class="st1" cx="351.3" cy="21.8" r="0.9"/>
			</g>
		</g>
		<g>
			<g>
				<circle class="st1" cx="345.8" cy="12.5" r="0.9"/>
			</g>
		</g>
		<g>
			<g>
				<circle class="st1" cx="325.8" cy="8.1" r="0.9"/>
			</g>
		</g>
	</g>
	<g class="st2">
		<linearGradient id="SVGID_3_" gradientUnits="userSpaceOnUse" x1="489.5533" y1="361.1088" x2="406.1982" y2="292.3162">
			<stop  offset="0" style="stop-color:#D4D4D4"/>
			<stop  offset="0.9873" style="stop-color:#797979"/>
		</linearGradient>
		<polygon class="st3" points="510.3,334.8 411.6,340.2 419.4,277 		"/>
		<linearGradient id="SVGID_4_" gradientUnits="userSpaceOnUse" x1="593.8475" y1="354.5331" x2="497.1035" y2="274.6907">
			<stop  offset="0" style="stop-color:#D4D4D4"/>
			<stop  offset="0.9873" style="stop-color:#797979"/>
		</linearGradient>
		<polygon class="st4" points="587.3,264.6 551.3,404.8 455.8,326 		"/>
		<linearGradient id="SVGID_5_" gradientUnits="userSpaceOnUse" x1="656.9415" y1="221.7607" x2="546.4534" y2="130.5754">
			<stop  offset="0" style="stop-color:#D4D4D4"/>
			<stop  offset="0.9873" style="stop-color:#797979"/>
		</linearGradient>
		<path class="st5" d="M648.1,120c-1.9,0-116,29.2-116,29.2l55.2,115.4l118.5-103L648.1,120z"/>
		<linearGradient id="SVGID_6_" gradientUnits="userSpaceOnUse" x1="590.2733" y1="263.1605" x2="473.2491" y2="166.581">
			<stop  offset="0" style="stop-color:#D4D4D4"/>
			<stop  offset="0.9873" style="stop-color:#797979"/>
		</linearGradient>
		<polygon class="st6" points="441.5,206.3 532.1,149.2 587.3,264.6 		"/>
		<linearGradient id="SVGID_7_" gradientUnits="userSpaceOnUse" x1="545.9779" y1="315.4611" x2="429.8445" y2="219.6167">
			<stop  offset="0" style="stop-color:#D4D4D4"/>
			<stop  offset="0.9873" style="stop-color:#797979"/>
		</linearGradient>
		<polygon class="st7" points="455.8,326 587.3,264.6 441.5,206.3 		"/>
		<linearGradient id="SVGID_8_" gradientUnits="userSpaceOnUse" x1="410.2556" y1="415.107" x2="358.0934" y2="372.0577">
			<stop  offset="0" style="stop-color:#D4D4D4"/>
			<stop  offset="0.9873" style="stop-color:#797979"/>
		</linearGradient>
		<polygon class="st8" points="321.3,417.2 411.6,340.2 424.4,397.4 		"/>
		<linearGradient id="SVGID_9_" gradientUnits="userSpaceOnUse" x1="409.8623" y1="416.3805" x2="323.8636" y2="345.4062">
			<stop  offset="0" style="stop-color:#D4D4D4"/>
			<stop  offset="0.9873" style="stop-color:#797979"/>
		</linearGradient>
		<polygon class="st9" points="360.9,301.8 321.3,417.2 424.4,397.4 		"/>
		<linearGradient id="SVGID_10_" gradientUnits="userSpaceOnUse" x1="436.8389" y1="561.2599" x2="296.7274" y2="445.6266">
			<stop  offset="0" style="stop-color:#D4D4D4"/>
			<stop  offset="0.9873" style="stop-color:#797979"/>
		</linearGradient>
		<path class="st10" d="M483.7,501.5c-3.1,0-162.7,65.3-162.3,63.4c0.4-1.9,0-147.7,0-147.7L483.7,501.5z"/>
		<linearGradient id="SVGID_11_" gradientUnits="userSpaceOnUse" x1="621.6017" y1="378.068" x2="545.1634" y2="314.9837">
			<stop  offset="0" style="stop-color:#D4D4D4"/>
			<stop  offset="0.9873" style="stop-color:#797979"/>
		</linearGradient>
		<polygon class="st11" points="651.8,340.9 587.3,264.6 551.3,404.8 		"/>
		<linearGradient id="SVGID_12_" gradientUnits="userSpaceOnUse" x1="716.9401" y1="271.1543" x2="636.2242" y2="204.5398">
			<stop  offset="0" style="stop-color:#D4D4D4"/>
			<stop  offset="0.9873" style="stop-color:#797979"/>
		</linearGradient>
		<polygon class="st12" points="705.8,161.6 587.3,264.6 685.4,308.6 		"/>
		<linearGradient id="SVGID_13_" gradientUnits="userSpaceOnUse" x1="731.255" y1="449.5226" x2="601.7786" y2="342.6663">
			<stop  offset="0" style="stop-color:#D4D4D4"/>
			<stop  offset="0.9873" style="stop-color:#797979"/>
		</linearGradient>
		<polygon class="st13" points="551.3,404.8 679.8,510.3 685.4,308.6 		"/>
		<linearGradient id="SVGID_14_" gradientUnits="userSpaceOnUse" x1="527.8367" y1="434.067" x2="431.5388" y2="354.5927">
			<stop  offset="0" style="stop-color:#D4D4D4"/>
			<stop  offset="0.9873" style="stop-color:#797979"/>
		</linearGradient>
		<polygon class="st14" points="424.4,397.4 551.3,404.8 455.8,326 		"/>
		<linearGradient id="SVGID_15_" gradientUnits="userSpaceOnUse" x1="604.3239" y1="525.0681" x2="513.3483" y2="449.9864">
			<stop  offset="0" style="stop-color:#D4D4D4"/>
			<stop  offset="0.9873" style="stop-color:#797979"/>
		</linearGradient>
		<polygon class="st15" points="641.2,478.6 483.7,501.5 551.3,404.8 		"/>
		<linearGradient id="SVGID_16_" gradientUnits="userSpaceOnUse" x1="508.9402" y1="306.4453" x2="419.3482" y2="232.5055">
			<stop  offset="0" style="stop-color:#D4D4D4"/>
			<stop  offset="0.9873" style="stop-color:#797979"/>
		</linearGradient>
		<polygon class="st16" points="441.5,206.3 419.4,277 521.5,290 		"/>
		<linearGradient id="SVGID_17_" gradientUnits="userSpaceOnUse" x1="544.6175" y1="225.4259" x2="473.4936" y2="166.7277">
			<stop  offset="0" style="stop-color:#D4D4D4"/>
			<stop  offset="0.9873" style="stop-color:#797979"/>
		</linearGradient>
		<polygon class="st17" points="532.1,149.2 547,221.8 441.5,206.3 		"/>
		<linearGradient id="SVGID_18_" gradientUnits="userSpaceOnUse" x1="544.0696" y1="263.8853" x2="453.6172" y2="189.2353">
			<stop  offset="0" style="stop-color:#D4D4D4"/>
			<stop  offset="0.9873" style="stop-color:#797979"/>
		</linearGradient>
		<polygon class="st18" points="521.5,290 547,221.8 441.5,206.3 		"/>
		<linearGradient id="SVGID_19_" gradientUnits="userSpaceOnUse" x1="635.5101" y1="206.9762" x2="589.7293" y2="169.1935">
			<stop  offset="0" style="stop-color:#D4D4D4"/>
			<stop  offset="0.9873" style="stop-color:#797979"/>
		</linearGradient>
		<polygon class="st19" points="648.1,120 547,221.8 587.3,264.6 		"/>
		<linearGradient id="SVGID_20_" gradientUnits="userSpaceOnUse" x1="477.4585" y1="374.8773" x2="394.0839" y2="306.0686">
			<stop  offset="0" style="stop-color:#D4D4D4"/>
			<stop  offset="0.9873" style="stop-color:#797979"/>
		</linearGradient>
		<polygon class="st20" points="424.4,397.4 509.8,334.7 419.4,277 		"/>
		<linearGradient id="SVGID_21_" gradientUnits="userSpaceOnUse" x1="411.0691" y1="452.0467" x2="340.2569" y2="393.6057">
			<stop  offset="0" style="stop-color:#D4D4D4"/>
			<stop  offset="0.9873" style="stop-color:#797979"/>
		</linearGradient>
		<polygon class="st21" points="378.4,491.1 424.4,397.4 321.3,417.2 		"/>
		<linearGradient id="SVGID_22_" gradientUnits="userSpaceOnUse" x1="536.8736" y1="423.9884" x2="456.2847" y2="357.4787">
			<stop  offset="0" style="stop-color:#D4D4D4"/>
			<stop  offset="0.9873" style="stop-color:#797979"/>
		</linearGradient>
		<polygon class="st22" points="509.8,334.7 551.3,404.8 424.4,397.4 		"/>
		<linearGradient id="SVGID_23_" gradientUnits="userSpaceOnUse" x1="586.633" y1="545.6984" x2="495.8669" y2="470.7895">
			<stop  offset="0" style="stop-color:#D4D4D4"/>
			<stop  offset="0.9873" style="stop-color:#797979"/>
		</linearGradient>
		<polygon class="st23" points="551.3,404.8 503.6,587.9 641.2,478.6 		"/>
		<linearGradient id="SVGID_24_" gradientUnits="userSpaceOnUse" x1="765.701" y1="460.3916" x2="708.9525" y2="413.5573">
			<stop  offset="0" style="stop-color:#D4D4D4"/>
			<stop  offset="0.9873" style="stop-color:#797979"/>
		</linearGradient>
		<path class="st24" d="M767.9,344c0,0-30.4,152-32.3,152c-1.9,0-55.8,14.3-55.8,14.3L767.9,344z"/>
		<linearGradient id="SVGID_25_" gradientUnits="userSpaceOnUse" x1="644.7706" y1="360.1148" x2="536.8174" y2="271.0214">
			<stop  offset="0" style="stop-color:#D4D4D4"/>
			<stop  offset="0.9873" style="stop-color:#797979"/>
		</linearGradient>
		<polygon class="st25" points="509.8,334.7 685.4,308.6 521.5,290 		"/>
		<linearGradient id="SVGID_26_" gradientUnits="userSpaceOnUse" x1="746.064" y1="372.3019" x2="674.3633" y2="313.1276">
			<stop  offset="0" style="stop-color:#D4D4D4"/>
			<stop  offset="0.9873" style="stop-color:#797979"/>
		</linearGradient>
		<polygon class="st26" points="767.9,344 685.4,308.6 651.8,340.9 		"/>
		<linearGradient id="SVGID_27_" gradientUnits="userSpaceOnUse" x1="792.4393" y1="315.0359" x2="665.2022" y2="210.0277">
			<stop  offset="0" style="stop-color:#D4D4D4"/>
			<stop  offset="0.9873" style="stop-color:#797979"/>
		</linearGradient>
		<polygon class="st27" points="705.8,161.6 767.9,344 685.4,308.6 		"/>
		<linearGradient id="SVGID_28_" gradientUnits="userSpaceOnUse" x1="444.9218" y1="202.6332" x2="279.1245" y2="65.8014">
			<stop  offset="0" style="stop-color:#D4D4D4"/>
			<stop  offset="0.9873" style="stop-color:#797979"/>
		</linearGradient>
		<polyline class="st28" points="256,94.6 336.3,54.2 379.2,152.3 378.2,206.3 441.5,206.3 		"/>
		<linearGradient id="SVGID_29_" gradientUnits="userSpaceOnUse" x1="536.8016" y1="119.8147" x2="481.2917" y2="74.0027">
			<stop  offset="0" style="stop-color:#D4D4D4"/>
			<stop  offset="0.9873" style="stop-color:#797979"/>
		</linearGradient>
		<polygon class="st29" points="503.6,48 470.5,154.8 580.8,65.4 		"/>
		<linearGradient id="SVGID_30_" gradientUnits="userSpaceOnUse" x1="433.3882" y1="84.0095" x2="388.7783" y2="47.1932">
			<stop  offset="0" style="stop-color:#D4D4D4"/>
			<stop  offset="0.9873" style="stop-color:#797979"/>
		</linearGradient>
		<polygon class="st30" points="383.8,54.2 440.8,28.8 402.5,120 		"/>
		<linearGradient id="SVGID_31_" gradientUnits="userSpaceOnUse" x1="141.5643" y1="215.3093" x2="113.3223" y2="192.0014">
			<stop  offset="0" style="stop-color:#D4D4D4"/>
			<stop  offset="0.9873" style="stop-color:#797979"/>
		</linearGradient>
		<polygon class="st31" points="123.7,180.3 156.2,195.8 101.8,213.1 		"/>
		<linearGradient id="SVGID_32_" gradientUnits="userSpaceOnUse" x1="343.5761" y1="180.1938" x2="283.2693" y2="130.4229">
			<stop  offset="0" style="stop-color:#D4D4D4"/>
			<stop  offset="0.9873" style="stop-color:#797979"/>
		</linearGradient>
		<polygon class="st32" points="262.2,157.2 317.9,113.8 360.9,157.2 		"/>
		<linearGradient id="SVGID_33_" gradientUnits="userSpaceOnUse" x1="249.3839" y1="77.5241" x2="204.9616" y2="40.8625">
			<stop  offset="0" style="stop-color:#D4D4D4"/>
			<stop  offset="0.9873" style="stop-color:#797979"/>
		</linearGradient>
		<polygon class="st33" points="189.8,60.5 230.5,28.8 261.8,60.5 		"/>
		<linearGradient id="SVGID_34_" gradientUnits="userSpaceOnUse" x1="176.3915" y1="113.0622" x2="149.4076" y2="90.7925">
			<stop  offset="0" style="stop-color:#D4D4D4"/>
			<stop  offset="0.9873" style="stop-color:#797979"/>
		</linearGradient>
		<polygon class="st34" points="153.6,139.6 146.9,94.8 191.3,80.3 		"/>
		<linearGradient id="SVGID_35_" gradientUnits="userSpaceOnUse" x1="334.9378" y1="268.5702" x2="275.7815" y2="219.7488">
			<stop  offset="0" style="stop-color:#D4D4D4"/>
			<stop  offset="0.9873" style="stop-color:#797979"/>
		</linearGradient>
		<polygon class="st35" points="253.5,248.1 311.9,203.8 357.6,239.1 		"/>
		<linearGradient id="SVGID_36_" gradientUnits="userSpaceOnUse" x1="321.5366" y1="336.0406" x2="285.8412" y2="306.5814">
			<stop  offset="0" style="stop-color:#D4D4D4"/>
			<stop  offset="0.9873" style="stop-color:#797979"/>
		</linearGradient>
		<polygon class="st36" points="301.1,359.5 290,302.7 329.6,301.8 		"/>
		<linearGradient id="SVGID_37_" gradientUnits="userSpaceOnUse" x1="214.0058" y1="237.018" x2="196.5312" y2="222.5963">
			<stop  offset="0" style="stop-color:#D4D4D4"/>
			<stop  offset="0.9873" style="stop-color:#797979"/>
		</linearGradient>
		<polygon class="st37" points="203.9,214.9 198.3,239.1 221.2,227 		"/>
		<linearGradient id="SVGID_38_" gradientUnits="userSpaceOnUse" x1="139.9718" y1="415.0265" x2="118.4807" y2="397.29">
			<stop  offset="0" style="stop-color:#D4D4D4"/>
			<stop  offset="0.9873" style="stop-color:#797979"/>
		</linearGradient>
		<polygon class="st38" points="137.7,401.2 113.2,405.4 133.2,421.9 		"/>
		<linearGradient id="SVGID_39_" gradientUnits="userSpaceOnUse" x1="81.9173" y1="171.0458" x2="60.4262" y2="153.3093">
			<stop  offset="0" style="stop-color:#D4D4D4"/>
			<stop  offset="0.9873" style="stop-color:#797979"/>
		</linearGradient>
		<polygon class="st39" points="79.7,157.2 55.2,161.4 75.2,177.9 		"/>
		<linearGradient id="SVGID_40_" gradientUnits="userSpaceOnUse" x1="225.4459" y1="432.4279" x2="176.1967" y2="391.7828">
			<stop  offset="0" style="stop-color:#D4D4D4"/>
			<stop  offset="0.9873" style="stop-color:#797979"/>
		</linearGradient>
		<polygon class="st40" points="173.5,437.7 200.8,363.2 239.8,413.8 		"/>
		<linearGradient id="SVGID_41_" gradientUnits="userSpaceOnUse" x1="138.47" y1="373.553" x2="66.0573" y2="313.7912">
			<stop  offset="0" style="stop-color:#D4D4D4"/>
			<stop  offset="0.9873" style="stop-color:#797979"/>
		</linearGradient>
		<polygon class="st41" points="143.7,365.4 39.7,346.7 99.7,286.6 		"/>
		<linearGradient id="SVGID_42_" gradientUnits="userSpaceOnUse" x1="317.942" y1="421.5233" x2="160.475" y2="291.5665">
			<stop  offset="0" style="stop-color:#D4D4D4"/>
			<stop  offset="0.9873" style="stop-color:#797979"/>
		</linearGradient>
		<polyline class="st42" points="321.3,417.2 273.3,355.8 266.5,425.6 221.2,293.7 181.5,266.1 		"/>
		<linearGradient id="SVGID_43_" gradientUnits="userSpaceOnUse" x1="709.4727" y1="415.5656" x2="609.7391" y2="333.2559">
			<stop  offset="0" style="stop-color:#D4D4D4"/>
			<stop  offset="0.9873" style="stop-color:#797979"/>
		</linearGradient>
		<polygon class="st43" points="551.3,404.8 767.9,344 641.2,478.6 		"/>
		<linearGradient id="SVGID_44_" gradientUnits="userSpaceOnUse" x1="732.8926" y1="500.5584" x2="661.8427" y2="441.9212">
			<stop  offset="0" style="stop-color:#D4D4D4"/>
			<stop  offset="0.9873" style="stop-color:#797979"/>
		</linearGradient>
		<polygon class="st44" points="735.6,496 689,411.1 679.8,510.3 		"/>
		<linearGradient id="SVGID_45_" gradientUnits="userSpaceOnUse" x1="650.9913" y1="546.092" x2="611.4725" y2="513.4774">
			<stop  offset="0" style="stop-color:#D4D4D4"/>
			<stop  offset="0.9873" style="stop-color:#797979"/>
		</linearGradient>
		<polygon class="st45" points="679.8,510.3 611.1,570.9 641.2,478.6 		"/>
		<linearGradient id="SVGID_46_" gradientUnits="userSpaceOnUse" x1="698.184" y1="488.6217" x2="625.551" y2="428.6779">
			<stop  offset="0" style="stop-color:#D4D4D4"/>
			<stop  offset="0.9873" style="stop-color:#797979"/>
		</linearGradient>
		<polygon class="st46" points="689,411.1 591.4,470.7 679.8,510.3 		"/>
		<linearGradient id="SVGID_47_" gradientUnits="userSpaceOnUse" x1="780.4711" y1="443.3526" x2="709.7947" y2="385.0237">
			<stop  offset="0" style="stop-color:#D4D4D4"/>
			<stop  offset="0.9873" style="stop-color:#797979"/>
		</linearGradient>
		<polygon class="st47" points="767.9,344 689,411.1 735.6,496 		"/>
		<linearGradient id="SVGID_48_" gradientUnits="userSpaceOnUse" x1="523.3901" y1="160.5052" x2="488.7031" y2="131.8782">
			<stop  offset="0" style="stop-color:#D4D4D4"/>
			<stop  offset="0.9873" style="stop-color:#797979"/>
		</linearGradient>
		<polygon class="st48" points="470.5,154.8 532.1,149.2 525.6,124.4 		"/>
		<linearGradient id="SVGID_49_" gradientUnits="userSpaceOnUse" x1="558.547" y1="522.0089" x2="417.1955" y2="405.352">
			<stop  offset="0" style="stop-color:#D4D4D4"/>
			<stop  offset="0.9873" style="stop-color:#797979"/>
		</linearGradient>
		<polygon class="st49" points="424.4,397.4 551.3,404.8 503.6,587.9 		"/>
		<linearGradient id="SVGID_50_" gradientUnits="userSpaceOnUse" x1="428.2056" y1="320.809" x2="378.4958" y2="279.7838">
			<stop  offset="0" style="stop-color:#D4D4D4"/>
			<stop  offset="0.9873" style="stop-color:#797979"/>
		</linearGradient>
		<polygon class="st50" points="360.7,302 411.6,340.2 419.4,277 		"/>
		<linearGradient id="SVGID_51_" gradientUnits="userSpaceOnUse" x1="447.4715" y1="336.8584" x2="378.3619" y2="279.8225">
			<stop  offset="0" style="stop-color:#D4D4D4"/>
			<stop  offset="0.9873" style="stop-color:#797979"/>
		</linearGradient>
		<polygon class="st51" points="360.7,302 455.8,326 419.4,277 		"/>
		<linearGradient id="SVGID_52_" gradientUnits="userSpaceOnUse" x1="630.7855" y1="382.2884" x2="535.2608" y2="303.4523">
			<stop  offset="0" style="stop-color:#D4D4D4"/>
			<stop  offset="0.9873" style="stop-color:#797979"/>
		</linearGradient>
		<polygon class="st52" points="510.3,334.8 651.8,340.9 601.6,417.2 		"/>
		<linearGradient id="SVGID_53_" gradientUnits="userSpaceOnUse" x1="606.9329" y1="452.6866" x2="549.8521" y2="405.578">
			<stop  offset="0" style="stop-color:#D4D4D4"/>
			<stop  offset="0.9873" style="stop-color:#797979"/>
		</linearGradient>
		<polygon class="st53" points="591.4,470.7 601.6,417.2 551.3,404.8 		"/>
		<linearGradient id="SVGID_54_" gradientUnits="userSpaceOnUse" x1="655.1351" y1="453.037" x2="605.4626" y2="412.0425">
			<stop  offset="0" style="stop-color:#D4D4D4"/>
			<stop  offset="0.9873" style="stop-color:#797979"/>
		</linearGradient>
		<polygon class="st54" points="689,411.1 601.6,417.2 591.4,470.7 		"/>
		<linearGradient id="SVGID_55_" gradientUnits="userSpaceOnUse" x1="679.8006" y1="422.9606" x2="622.6642" y2="375.8062">
			<stop  offset="0" style="stop-color:#D4D4D4"/>
			<stop  offset="0.9873" style="stop-color:#797979"/>
		</linearGradient>
		<polygon class="st55" points="651.8,340.9 689,411.1 601.6,417.2 		"/>
		<linearGradient id="SVGID_56_" gradientUnits="userSpaceOnUse" x1="627.4996" y1="165.2085" x2="562.4799" y2="111.5479">
			<stop  offset="0" style="stop-color:#D4D4D4"/>
			<stop  offset="0.9873" style="stop-color:#797979"/>
		</linearGradient>
		<polygon class="st56" points="532.1,149.2 599.2,199.1 648.1,120 		"/>
		<linearGradient id="SVGID_57_" gradientUnits="userSpaceOnUse" x1="726.038" y1="260.1631" x2="620.284" y2="172.8848">
			<stop  offset="0" style="stop-color:#D4D4D4"/>
			<stop  offset="0.9873" style="stop-color:#797979"/>
		</linearGradient>
		<polygon class="st57" points="705.8,161.6 599.2,199.1 685.4,308.6 		"/>
		<linearGradient id="SVGID_58_" gradientUnits="userSpaceOnUse" x1="606.226" y1="242.3969" x2="560.5652" y2="204.7133">
			<stop  offset="0" style="stop-color:#D4D4D4"/>
			<stop  offset="0.9873" style="stop-color:#797979"/>
		</linearGradient>
		<polygon class="st58" points="547,221.8 599.2,199.1 587.3,264.6 		"/>
		<linearGradient id="SVGID_59_" gradientUnits="userSpaceOnUse" x1="478.8961" y1="508.167" x2="391.8334" y2="436.3146">
			<stop  offset="0" style="stop-color:#D4D4D4"/>
			<stop  offset="0.9873" style="stop-color:#797979"/>
		</linearGradient>
		<polygon class="st59" points="424.4,397.4 378.4,491.1 483.7,501.5 		"/>
		<linearGradient id="SVGID_60_" gradientUnits="userSpaceOnUse" x1="435.7672" y1="560.7164" x2="367.272" y2="504.1876">
			<stop  offset="0" style="stop-color:#D4D4D4"/>
			<stop  offset="0.9873" style="stop-color:#797979"/>
		</linearGradient>
		<polygon class="st60" points="321.3,564.9 378.4,491.1 483.7,501.5 		"/>
		<linearGradient id="SVGID_61_" gradientUnits="userSpaceOnUse" x1="570.2504" y1="496.915" x2="513.566" y2="450.1337">
			<stop  offset="0" style="stop-color:#D4D4D4"/>
			<stop  offset="0.9873" style="stop-color:#797979"/>
		</linearGradient>
		<polygon class="st61" points="591.4,470.7 483.7,501.5 551.3,404.8 		"/>
	</g>
	<g class="st62">
		<circle class="st1" cx="531.7" cy="149.2" r="3.1"/>
		<path class="st1" d="M445.4,206.6c0,2-1.7,3.7-3.7,3.7c-2,0-3.7-1.7-3.7-3.7c0-2,1.7-3.7,3.7-3.7
			C443.7,202.9,445.4,204.5,445.4,206.6z"/>
		<circle class="st1" cx="767.5" cy="345.6" r="5.4"/>
		<path class="st1" d="M364.4,302c0,2-1.6,3.6-3.6,3.6c-2,0-3.6-1.6-3.6-3.6c0-2,1.6-3.6,3.6-3.6C362.7,298.3,364.4,300,364.4,302z"
			/>
		<circle class="st1" cx="424.9" cy="397.3" r="4.7"/>
		<circle class="st1" cx="483.7" cy="501.5" r="4.7"/>
		<circle class="st1" cx="510.3" cy="334.8" r="2.4"/>
		<path class="st1" d="M654.3,340.9c0,1.3-1.1,2.4-2.4,2.4c-1.3,0-2.4-1.1-2.4-2.4c0-1.3,1.1-2.4,2.4-2.4
			C653.2,338.5,654.3,339.6,654.3,340.9z"/>
		<circle class="st1" cx="411.6" cy="340.2" r="2.4"/>
		<path class="st1" d="M421.8,277c0,1.3-1.1,2.4-2.4,2.4c-1.3,0-2.4-1.1-2.4-2.4c0-1.3,1.1-2.4,2.4-2.4
			C420.7,274.6,421.8,275.7,421.8,277z"/>
		<path class="st63" d="M276.3,357.1c0,1.3-1.1,2.4-2.4,2.4c-1.3,0-2.4-1.1-2.4-2.4c0-1.3,1.1-2.4,2.4-2.4
			C275.2,354.7,276.3,355.8,276.3,357.1z"/>
		<circle class="st63" cx="173.5" cy="438.3" r="2.4"/>
		<circle class="st63" cx="221.2" cy="294.8" r="2.4"/>
		<path class="st63" d="M269.3,425.8c0,1.3-1.1,2.4-2.4,2.4c-1.3,0-2.4-1.1-2.4-2.4c0-1.3,1.1-2.4,2.4-2.4
			C268.2,423.3,269.3,424.4,269.3,425.8z"/>
		<path class="st1" d="M381.6,206.6c0,1.3-1.1,2.4-2.4,2.4c-1.3,0-2.4-1.1-2.4-2.4c0-1.3,1.1-2.4,2.4-2.4
			C380.5,204.2,381.6,205.3,381.6,206.6z"/>
		<path class="st1" d="M292.4,303.9c0,1.3-1.1,2.4-2.4,2.4s-2.4-1.1-2.4-2.4c0-1.3,1.1-2.4,2.4-2.4S292.4,302.6,292.4,303.9z"/>
		<circle class="st63" cx="253.5" cy="248.1" r="2.4"/>
		<path class="st63" d="M381.6,152.2c0,1.3-1.1,2.4-2.4,2.4c-1.3,0-2.4-1.1-2.4-2.4c0-1.3,1.1-2.4,2.4-2.4
			C380.5,149.8,381.6,150.9,381.6,152.2z"/>
		<path class="st63" d="M583.2,65.2c0,1.3-1.1,2.4-2.4,2.4c-1.3,0-2.4-1.1-2.4-2.4c0-1.3,1.1-2.4,2.4-2.4
			C582.1,62.8,583.2,63.9,583.2,65.2z"/>
		<circle class="st63" cx="440.8" cy="28.8" r="2.4"/>
		<circle class="st63" cx="336.3" cy="54.2" r="2.4"/>
		<path class="st1" d="M323.8,564.9c0,1.3-1.1,2.4-2.4,2.4c-1.3,0-2.4-1.1-2.4-2.4c0-1.3,1.1-2.4,2.4-2.4
			C322.7,562.5,323.8,563.6,323.8,564.9z"/>
		<circle class="st1" cx="521.1" cy="290" r="2.4"/>
		<circle class="st1" cx="599.2" cy="199.1" r="2.4"/>
		<circle class="st1" cx="601.6" cy="417.2" r="2.4"/>
		<path class="st1" d="M380.8,491.1c0,1.3-1.1,2.4-2.4,2.4s-2.4-1.1-2.4-2.4c0-1.3,1.1-2.4,2.4-2.4S380.8,489.8,380.8,491.1z"/>
		<circle class="st1" cx="591.6" cy="470.7" r="2.4"/>
		<path class="st1" d="M508.4,587.9c0,1.3-1.1,2.4-2.4,2.4c-1.3,0-2.4-1.1-2.4-2.4s1.1-2.4,2.4-2.4
			C507.3,585.4,508.4,586.5,508.4,587.9z"/>
		<path class="st1" d="M691.5,411.1c0,1.3-1.1,2.4-2.4,2.4c-1.3,0-2.4-1.1-2.4-2.4c0-1.3,1.1-2.4,2.4-2.4
			C690.4,408.6,691.5,409.7,691.5,411.1z"/>
		<circle class="st1" cx="586.9" cy="265.3" r="4.7"/>
		<circle class="st1" cx="455.8" cy="326" r="4.7"/>
		<circle class="st1" cx="685.4" cy="308.6" r="4.7"/>
		<circle class="st1" cx="551.3" cy="404.8" r="4.7"/>
		<circle class="st1" cx="641.2" cy="480.1" r="4.7"/>
		<circle class="st1" cx="546.3" cy="222.1" r="4.7"/>
		<path class="st1" d="M325.5,417.4c0,2-1.6,3.6-3.6,3.6c-2,0-3.6-1.6-3.6-3.6c0-2,1.6-3.6,3.6-3.6
			C323.8,413.8,325.5,415.4,325.5,417.4z"/>
		<path class="st1" d="M708.6,161.3c0,1.7-1.4,3-3,3c-1.7,0-3-1.4-3-3c0-1.7,1.4-3,3-3C707.3,158.3,708.6,159.6,708.6,161.3z"/>
		<path class="st1" d="M651.1,120c0,1.7-1.4,3-3,3c-1.7,0-3-1.4-3-3c0-1.7,1.4-3,3-3C649.8,117,651.1,118.3,651.1,120z"/>
	</g>
</g>
</svg>
