<?xml version="1.0" encoding="utf-8"?>
<!-- Generator: Adobe Illustrator 22.1.0, SVG Export Plug-In . SVG Version: 6.00 Build 0)  -->
<svg version="1.1" id="Layer_1" xmlns="http://www.w3.org/2000/svg" xmlns:xlink="http://www.w3.org/1999/xlink" x="0px" y="0px"
	 viewBox="0 0 424.8 492" style="enable-background:new 0 0 424.8 492;" xml:space="preserve">
<style type="text/css">
	.st0{display:none;}
	.st1{display:inline;fill:#03505A;}
	.st2{enable-background:new    ;}
	.st3{fill:#FFFFFF;}
	.st4{fill:#CE5D5D;}
	.st5{display:none;fill:#DFE2DC;}
	.st6{fill:#DBD1D1;}
</style>
<g id="Layer_2_1_" class="st0">
	<rect x="-89.2" y="16" class="st1" width="621" height="476"/>
</g>
<g id="LOGO">
	<g id="text__x5B_obj_x5D_" class="st2">
		<path class="st3" d="M42.1,397.9l0.2-35c0-6.9-2.4-8.8-10.4-8.8c-6,0-8.7,3.1-8.7,10.2v81.2c0,11.7,2.4,15.4,9.7,15.4
			c7.1,0,9.4-2.5,9.4-11.3v-26.5h20.5v33.6c0,10.8-1.8,17.1-5.4,20.2c-3.8,2.9-14.4,5.4-24.1,5.4s-18.2-1.9-23.6-5.7
			c-5.8-3.7-7.8-11.9-7.8-33v-84.9c0-8.5,1.6-14.4,4.2-17.6c3.8-4,12-6.5,21.5-6.5c11.8,0,22.2,2.3,27.8,6c4.7,3.4,6.4,9.1,6.4,21
			v36.3H42.1L42.1,397.9L42.1,397.9z"/>
		<path class="st3" d="M96.7,338.2l10.9,28.1l4,12.5l3.8-11.7l10.9-29H144L120.5,403l27.2,77.2h-23.4l-12.9-39l-2.9-11.1l-2.4,9.6
			L92.3,480H72.6l26.7-75.5l-26-66.5h23.4C96.7,338,96.7,338.2,96.7,338.2z"/>
		<path class="st3" d="M183.3,286.5v195.7h-20.7V286.5H183.3z"/>
		<path class="st3" d="M242.1,372.3c0-11.9-2.4-15.9-9.2-15.9c-7.1,0-10.7,3.7-10.7,11.1v13.4H202v-19.4c0-8.3,1.8-15.4,5.2-19.4
			c3.1-3.7,12.5-6,25.7-6c10.2,0,16.3,1.4,21.2,4.8c6.9,4.8,8.9,12.3,8.9,32.7v83.5c0,21-6.9,27.3-30.9,27.3
			c-22.7,0-29.8-6-29.8-24.8v-41.1c0-22.7,4.7-29,21.8-29c7.6,0,11.8,1.1,18.2,4.8L242.1,372.3L242.1,372.3z M222.3,451.3
			c0,9.4,2.2,12.3,9.4,12.3c7.3,0,10.4-3.1,10.4-10.5v-30.4c0-9.6-2.6-12.5-12-12.5c-5.6,0-7.8,4-7.8,14.2L222.3,451.3L222.3,451.3z
			"/>
		<path class="st3" d="M302.8,286.5v55.9c6.4-4.2,10-5.4,17.2-5.4c7.6,0,15.4,3.4,19.1,8.3c2.9,4,4.7,12.3,4.7,23V455
			c0,23.8-6,30.1-29,30.1c-16.7,0-24.3-2.3-28.5-8.3c-3.6-5.2-4.2-9.6-4.2-27.3v-163H302.8z M302.8,452.2c0,8.8,3.3,12.8,10.9,12.8
			c2.9,0,5.6-1.1,7.3-2.9c1.1-1.4,1.6-5.4,1.6-13.6v-77c0-10.5-2.4-14.2-9.7-14.2s-10,5.4-10,19.9L302.8,452.2L302.8,452.2z"/>
		<path class="st3" d="M401.5,389.4V370c0-9.1-3.3-13.4-10.4-13.4c-5.6,0-9.2,3.7-9.2,9.6v19.4c0.5,10,3.3,11.9,17.5,11.7
			c19.1,0.8,22,4.6,22.5,29v32.1c0,21-6.4,25.9-34,25.9c-11.8,0-18.2-2.3-22-7.3c-3.1-4.2-3.6-7.1-3.8-24.4l-0.2-26.1H382v24.4
			c0,10.8,1.9,13.9,8.7,13.9c7.3,0,11.6-4,11.6-11.1V430c-0.7-9.6-2.9-10.5-24.3-10.8c-12.7-0.2-16-5.7-16.7-27v-28.9
			c0-13.1,2.2-19.6,7.6-22.5c3.8-1.9,9.4-2.5,24.8-2.5c22.9,0,27.6,4.2,27.6,25v26.1C421.1,389.4,401.5,389.4,401.5,389.4z"/>
	</g>
	<path class="st4" d="M179.5,221.4c0-7.3-6.3-13.1-13.6-12.6c-1.5,0.1-3,0.2-4.5,0.2c-41-0.1-74.2-33.3-74.2-74.3
		s33.1-74.2,74.2-74.3c1.5,0,3,0,4.5,0.1c7.3,0.5,13.6-5.2,13.6-12.6v-21c0-6.7-5.2-12.2-11.9-12.6c-1.9-0.1-3.8-0.2-5.8-0.2l0,0
		c-0.1,0-0.3,0-0.4,0s-0.3,0-0.4,0l0,0C95,14.5,41.4,68.3,41.4,134.6s53.5,120,119.8,120.3l0,0c0.1,0,0.3,0,0.4,0s0.3,0,0.4,0l0,0
		c1.9,0,3.8-0.1,5.7-0.2c6.7-0.4,11.9-6,11.9-12.6C179.6,235.9,179.5,228.1,179.5,221.4z"/>
	<g id="X">
		<path class="st5" d="M123.2,14v46c41.1,0,74.3,33.2,74.3,74.3s-33.2,74.3-74.3,74.3v46c66.6,0,120.3-53.9,120.3-120.3
			S189.6,14,123.2,14z"/>
		<path class="st6" d="M282.2,134.6c0-41.1,33.2-74.3,74.3-74.3l0,0V14.1C290,14.1,236.2,68,236.2,134.4s53.9,120.3,120.3,120.3v-46
			l0,0C315.6,208.9,282.2,175.7,282.2,134.6z"/>
		<path class="st6" d="M199.5,44.8v17.7c0,4.9,2.3,9.6,6.3,12.5c18,13.6,29.8,35.2,29.8,59.5c0,24.4-11.7,46-29.8,59.5
			c-4,3-6.3,7.6-6.3,12.6v17.7c0,12.1,13.2,19.7,23.6,13.5c35.1-21.1,58.5-59.5,58.5-103.2s-23.5-82.3-58.4-103.4
			C212.8,25,199.5,32.6,199.5,44.8z"/>
	</g>
</g>
</svg>
