<?xml version="1.0" encoding="utf-8"?>
<!-- Generator: Adobe Illustrator 22.1.0, SVG Export Plug-In . SVG Version: 6.00 Build 0)  -->
<svg version="1.1" id="Layer_1" xmlns="http://www.w3.org/2000/svg" xmlns:xlink="http://www.w3.org/1999/xlink" x="0px" y="0px"
	 viewBox="0 0 252 549.6" style="enable-background:new 0 0 252 549.6;" xml:space="preserve">
<style type="text/css">
	.st0{fill:#F15B2C;}
	.st1{fill:#F7EC3C;}
	.st2{fill:#FFFFFF;}
	.st3{fill:#C64427;}
	.st4{fill:#AA2D23;}
	.st5{fill:#2B2C39;}
	.st6{fill:#F1F1F1;}
	.st7{fill:#A6DDF0;}
	.st8{opacity:0.3;fill:#E6E6E7;}
	.st9{opacity:0.5;fill:#FFFFFF;}
</style>
<g>
	<g>
		<g>
			<g>
				<g>
					<path class="st0" d="M129.5,408.6c-24.4,0.6-45.2,28.1-44.7,47.6c0.5,19.5,48.3,93.5,48.3,93.5c13.5-33.8,44-76.6,43.5-95.8
						C176.1,434.7,153.9,407.9,129.5,408.6z"/>
					<path class="st1" d="M129.5,410c-19.9,0.5-37,23-36.6,38.9c0.4,16,39.5,76.4,39.5,76.4c11-27.7,36-62.6,35.6-78.3
						C167.6,431.3,149.5,409.5,129.5,410z"/>
					<path class="st2" d="M129.5,409.8c-15.4,0.4-28.5,17.7-28.2,30c0.3,12.3,30.4,58.9,30.4,58.9c8.5-21.3,27.7-48.2,27.4-60.3
						C158.9,426.2,144.9,409.4,129.5,409.8z"/>
				</g>
				<g>
					<path class="st0" d="M111,418.7c-15.9-3.1-33.4,11.6-36,24.4c-2.5,12.7,17.7,67.7,17.7,67.7c13.7-20,39.7-43.3,42.2-55.8
						C137.4,442.4,126.9,421.8,111,418.7z"/>
					<path class="st1" d="M110.8,419.6c-13-2.6-27.3,9.5-29.4,19.9c-2.1,10.4,14.5,55.3,14.5,55.3c11.2-16.3,32.4-35.4,34.5-45.6
						C132.4,439,123.8,422.2,110.8,419.6z"/>
					<path class="st2" d="M110.8,419.5c-10-2-21.1,7.3-22.7,15.4c-1.6,8,11.2,42.6,11.2,42.6c8.6-12.6,25-27.3,26.6-35.2
						C127.5,434.4,120.9,421.5,110.8,419.5z"/>
				</g>
				<g>
					<path class="st0" d="M118.3,414.8c-9.5,4.1-13.3,18.2-10,25.7c3.3,7.6,33.7,29,33.7,29c-0.1-15.4,5.1-37,1.9-44.4
						C140.7,417.7,127.8,410.7,118.3,414.8z"/>
					<path class="st1" d="M118.5,415.4c-7.7,3.4-10.8,14.8-8.1,21c2.7,6.2,27.6,23.7,27.6,23.7c-0.1-12.6,4.2-30.2,1.5-36.3
						C136.8,417.7,126.3,412,118.5,415.4z"/>
					<path class="st2" d="M118.5,415.3c-6,2.6-8.4,11.4-6.3,16.2c2.1,4.8,21.2,18.2,21.2,18.2c0-9.7,3.2-23.3,1.2-28
						C132.6,417.1,124.5,412.7,118.5,415.3z"/>
				</g>
			</g>
		</g>
	</g>
	<g>
		<path class="st3" d="M68.4,294.4c0,0-30,17.2-44.9,47.6C4.7,380.7-0.3,439.8,7,443.6c7.3,3.8,16.2-24.7,31-41.4
			c24.4-27.6,45.5-25.9,45.5-25.9L68.4,294.4z"/>
		<path class="st4" d="M181.9,294.4c0,0,30,17.2,44.9,47.6c18.8,38.6,23.8,97.8,16.5,101.5c-7.3,3.8-16.2-24.7-31-41.4
			c-24.4-27.6-45.5-25.9-45.5-25.9L181.9,294.4z"/>
		<path class="st5" d="M169.2,424.3c3.4-10.4,26-83.9,26-175.3c0-75.5-43.6-118.4-70-139.5c-26.4,21.2-70,64-70,139.5
			c0,91.3,22.6,164.8,26,175.3H169.2z"/>
		<path class="st2" d="M36.5,207.6c0,115.6,28.6,184.3,32.9,197.5h111.5c4.3-13.2,32.9-81.9,32.9-197.5c0-51-15.7-98.9-35.4-136.7
			H71.9C52.2,108.6,36.5,156.6,36.5,207.6z"/>
		<path class="st3" d="M125.2,0c-15.6,12.5-36,37.8-53.2,70.9h106.5C161.1,37.8,140.8,12.5,125.2,0z"/>
		<path class="st6" d="M178.4,70.9h-53.2v334.2h55.8c4.3-13.2,32.9-81.9,32.9-197.5C213.8,156.6,198.1,108.6,178.4,70.9z"/>
		<g>
			<path class="st7" d="M125.2,120.9c-21.1,0-38.2,17.1-38.2,38.2c0,21.1,17.1,38.2,38.2,38.2c21.1,0,38.2-17.1,38.2-38.2
				C163.4,138,146.3,120.9,125.2,120.9z"/>
			<g>
				<path class="st5" d="M164.6,181.6c12.3-21.8,4.7-49.4-17.1-61.7c-21.8-12.3-49.4-4.7-61.7,17.1c-12.3,21.8-4.7,49.4,17.1,61.7
					C124.6,211,152.2,203.4,164.6,181.6z M155.9,176.7c-9.6,16.9-31.1,22.9-48.1,13.3c-17-9.6-22.9-31.1-13.3-48.1
					c9.6-17,31.1-22.9,48.1-13.3C159.5,138.2,165.5,159.8,155.9,176.7z"/>
				<path class="st8" d="M158.7,178.3c10.5-18.5,4-42-14.5-52.6c-18.5-10.5-42.1-4-52.6,14.5c-10.5,18.5-4,42,14.5,52.5
					C124.7,203.4,148.2,196.9,158.7,178.3z"/>
				<path class="st9" d="M95.4,170c-4.2-12.7,0-27.1,11.4-35.4c11.4-8.2,26.4-7.7,37.2,0.2c0,0-18.2,7.4-27.8,14.3
					C106.3,156.3,95.4,170,95.4,170z"/>
			</g>
		</g>
		<path class="st3" d="M125.4,308.1L125.4,308.1L125.4,308.1c-7.6,0-12.6,11.7-12.6,27.3c0,15.6,1.7,108.6,12.5,108.6c0,0,0,0,0,0
			c0,0,0,0,0,0c10.9,0,12.5-93,12.5-108.6C137.9,319.7,132.9,308.1,125.4,308.1z"/>
		<path class="st4" d="M125.2,70.9h53.3C161.1,37.8,140.8,12.5,125.2,0c0,0,0,0,0,0V70.9z"/>
		<path class="st4" d="M125.4,308.1L125.4,308.1l0,135.9c0,0,0,0,0,0c10.9,0,12.5-93,12.5-108.6
			C137.9,319.7,132.9,308.1,125.4,308.1z"/>
	</g>
</g>
</svg>
